<?xml version="1.0" encoding="UTF-8"?>
<svg id="katman_2" data-name="katman 2" xmlns="http://www.w3.org/2000/svg" viewBox="0 0 107.18 107.18">
  <defs>
    <style>
      .cls-1 {
        fill: #fff;
      }
    </style>
  </defs>
  <g id="katman_1" data-name="katman 1">
    <circle class="cls-1" cx="53.59" cy="53.59" r="53.59"/>
    <path d="M34.22,21.33h17.68c11.41,0,18.98,6.18,18.98,15.24,0,7.49-5.22,12.8-13.24,14.63,9.49,1.74,15.33,8.18,15.33,17.07,0,10.45-7.92,17.59-20.03,17.59h-18.72V21.33ZM50.24,50.59c5.4,0,11.58-4.18,11.58-14.02,0-10.8-5.48-13.93-11.58-13.93h-8.27v27.95h8.27ZM51.89,84.63c5.4,0,12.02-3.83,12.02-16.37s-6.62-16.28-12.02-16.28h-9.93v32.65h9.93Z"/>
  </g>
</svg>