<?xml version="1.0" encoding="UTF-8"?>
<svg id="katman_2" data-name="katman 2" xmlns="http://www.w3.org/2000/svg" viewBox="0 0 621.55 102.14">
  <defs>
    <style>
      .cls-1 {
        fill: #32161f;
      }
    </style>
  </defs>
  <g id="katman_1" data-name="katman 1">
    <g>
      <path class="cls-1" d="M0,1.46h26.86c17.33,0,28.84,9.39,28.84,23.15,0,11.38-7.94,19.45-20.11,22.23,14.42,2.65,23.29,12.44,23.29,25.93,0,15.88-12.04,26.73-30.43,26.73H0V1.46ZM24.34,45.91c8.2,0,17.6-6.35,17.6-21.3,0-16.41-8.34-21.17-17.6-21.17h-12.57v42.47h12.57ZM26.86,97.64c8.2,0,18.26-5.82,18.26-24.87s-10.06-24.74-18.26-24.74h-15.08v49.62h15.08Z"/>
      <path class="cls-1" d="M71.18,1.46h26.86c17.33,0,28.84,9.39,28.84,23.15,0,11.38-7.94,19.45-20.11,22.23,14.42,2.65,23.29,12.44,23.29,25.93.13,10.06,0,17.33,2.25,21.3,1.06,1.85,2.38,3.04,4.5,3.04,2.25,0,4.5-.93,6.35-2.65l.93,1.72c-4.5,3.44-10.45,4.37-16.54,1.98-6.88-2.78-11.25-9-11.25-25.4,0-18.92-10.06-24.74-18.26-24.74h-15.08v51.47h-11.78V1.46ZM95.52,45.91c8.2,0,17.6-6.35,17.6-21.3,0-16.41-8.34-21.17-17.6-21.17h-12.57v42.47h12.57Z"/>
      <path class="cls-1" d="M145,50.41c0-29.37,22.1-50.41,46.71-50.41s46.71,21.04,46.71,50.41-18.26,50.54-46.71,50.54-46.71-20.9-46.71-50.54ZM224.52,49.35c0-35.59-16.67-47.5-32.81-47.5s-32.81,11.91-32.81,47.5,16.27,49.75,32.81,49.75,32.81-13.1,32.81-49.75Z"/>
      <path class="cls-1" d="M243.04,1.46h12.83l31.75,84.15,20.24-53.32-11.64-30.83h12.83l31.75,84.15L372.96,1.46h1.85l-32.95,86.66-5.29,14.03h-2.12l-25.67-67.48-20.24,53.45-5.16,14.03h-2.12L243.04,1.46Z"/>
      <path class="cls-1" d="M384.47,72.37c-.4-6.75,3.04-10.72,7.28-10.72,4.5,0,6.75,3.57,6.75,6.62,0,6.88-1.06,8.2-1.06,15.48,0,6.35,9.26,15.35,21.17,15.35,10.06,0,22.62-4.23,22.62-15.35,0-33.21-52.53-33.47-52.53-58.08,0-12.7,9.39-25.67,29.5-25.67,14.95,0,28.58,9.79,28.58,19.45,0,5.29-2.91,7.54-6.75,7.54s-6.88-2.78-6.88-9c0-8.6-3.97-16.14-15.35-16.14-12.7,0-21.57,8.33-21.57,16.14,0,20.38,53.59,26.86,53.59,53.72,0,23.29-20.24,29.24-31.23,29.24-18.79,0-33.34-13.76-34.14-28.58Z"/>
      <path class="cls-1" d="M463.32,1.46h11.78v98.04h-11.78V1.46Z"/>
      <path class="cls-1" d="M543.1,3.44h-50.28v-1.98h64.96l-58.22,96.19h56.89v1.85h-71.71L543.1,3.44Z"/>
      <path class="cls-1" d="M567.44,1.46h54.11v1.98h-42.34v42.6h26.99v2.12h-26.99v49.48h42.34v1.85h-54.11V1.46Z"/>
    </g>
  </g>
</svg>